<?xml version="1.0" encoding="UTF-8"?>
<svg width="100px" height="100px" viewBox="0 0 100 100" version="1.1" xmlns="http://www.w3.org/2000/svg" xmlns:xlink="http://www.w3.org/1999/xlink">
    <title>direction_arrow</title>
    <g id="direction_arrow" stroke="none" stroke-width="1" fill="none" fill-rule="evenodd">
        <path d="M31.8418536,21.7709247 L49.3155666,5.36714201 C49.7003607,5.00590914 50.2996393,5.00590914 50.6844334,5.36714201 L68.1581464,21.7709247 C68.5608036,22.1489268 68.5807904,22.7817762 68.2027883,23.1844334 C68.0137654,23.3857853 67.7498872,23.5 67.4737129,23.5 L60,23.5 L60,23.5 L60,50 C60,55.5228475 55.5228475,60 50,60 C44.4771525,60 40,55.5228475 40,50 L40,23.5 L40,23.5 L32.5262871,23.5 C31.9740023,23.5 31.5262871,23.0522847 31.5262871,22.5 C31.5262871,22.2238257 31.6405018,21.9599476 31.8418536,21.7709247 Z" id="Rectangle" fill="#D8D8D8"></path>
    </g>
</svg>