<?xml version="1.0" encoding="UTF-8"?>
<svg width="131px" height="319px" viewBox="0 0 131 319" version="1.1" xmlns="http://www.w3.org/2000/svg" xmlns:xlink="http://www.w3.org/1999/xlink">
    <title>routing_icon</title>
    <g id="routing_icon" stroke="none" stroke-width="1" fill="none" fill-rule="evenodd">
        <line x1="47.5" y1="98.5" x2="47.5" y2="230.5" id="Line" stroke="#FFBE00" stroke-width="5" stroke-linecap="round" stroke-linejoin="round" stroke-dasharray="10,10"></line>
        <path d="M47.6882755,235 C64.4083269,235 77.9626067,248.55428 77.9626067,265.274331 C77.9626067,281.994383 63.3035287,295 48.1663631,295 C33.0291975,295 17.4139442,281.994383 17.4139442,265.274331 C17.4139442,248.55428 30.968224,235 47.6882755,235 Z M47.5602542,243 C35.2988832,243 25.359078,252.939805 25.359078,265.201176 C25.359078,277.462547 36.8102637,287 47.9108518,287 C59.01144,287 69.7614305,277.462547 69.7614305,265.201176 C69.7614305,252.939805 59.8216253,243 47.5602542,243 Z" id="Combined-Shape" fill="#FFBE00"></path>
        <g id="Group" transform="translate(15.1762, 27)" fill="#FFBE00">
            <path d="M32.8025802,64 C48.9488902,64 64.58524,50.1273416 64.58524,32.29262 C64.58524,14.4578984 50.1273416,0 32.29262,0 C14.4578984,0 0,14.4578984 0,32.29262 C0,50.1273416 16.6562702,64 32.8025802,64 Z" id="Oval" opacity="0.072299049"></path>
            <path d="M32.5888826,46 C39.6528932,46 46.4937962,39.9307119 46.4937962,32.1280212 C46.4937962,24.3253306 40.1684657,18 32.365775,18 C24.5630843,18 18.2377537,24.3253306 18.2377537,32.1280212 C18.2377537,39.9307119 25.5248719,46 32.5888826,46 Z" id="Oval"></path>
        </g>
    </g>
</svg>